<svg id="Слой_1" data-name="Слой 1" xmlns="http://www.w3.org/2000/svg" viewBox="0 0 150.71 136.71"><defs><style>.cls-1{opacity:0.07;}.cls-2{fill:#fff;}</style></defs><g class="cls-1"><path class="cls-2" d="M75.37,84.53a33.58,33.58,0,1,1,33.72-34.06A33.4,33.4,0,0,1,75.37,84.53Z"/><path class="cls-2" d="M134.58,72.42c2.42-3.78,3.23-8,4.3-12.21.28-1.11.62-2.21.89-3.33.17-.67.38-1.23,1.23-1.15s1.68.32,1.71,1.31a26.26,26.26,0,0,1-.08,5.68,52.48,52.48,0,0,1-5.57,14.46,5.39,5.39,0,0,0,.65-.61l7.32-10c1.15-1.57,2-1.88,3.42-1.39.85.28,1.19.84.81,1.64a38.34,38.34,0,0,1-2.81,5.49c-2.7,3.91-5.62,7.67-8.49,11.56,1.28-1,2.67-1.88,3.86-3,2.05-1.93,4-4,6-6a4.33,4.33,0,0,1,.71-.57,1.46,1.46,0,0,1,2.12.29,2,2,0,0,1-.26,1.79c-2,2.47-4,4.94-6.19,7.23s-4.57,4.3-6.92,6.48c1.53.5,2.62-.51,3.8-1.1s2.56-1.36,4-2.15A4.9,4.9,0,0,1,143,91.71c-2,1.58-4.17,3-6.27,4.44-1.13.78-2.29,1.52-3.43,2.28l.09.37h5a6,6,0,0,1-3.71,2.48c-2.16.75-4.38,1.33-6.55,2.25l5.58.31,0,.44c-2.7,1.68-5.92,1.84-8.91,3l4.71.77v.43c-3.08,1-6.6.39-9.67,2.28l4.16,1.75c-5.8,4.29-12.14,6.43-19.33,5.76.92-.2,1.85-.37,2.75-.63s1.89-.61,2.82-1a27,27,0,0,0,7.26-4.4,1.61,1.61,0,0,0,.31-1.2,8.63,8.63,0,0,0-.36-1.56c1.44,0,2.76,0,3.94-1.51l-1.83-.84,4.92-2.19c-1.2-1.17-.67-1.76.32-2.23l3.72-1.79-2-.8,7.56-4.7-2.9-.87c1.38-1.73,4-2.61,3.63-5.55l-4.14,1.12c1.86-2,3.14-4,3.38-6.55a7.6,7.6,0,0,0-6.43,1.33,26.27,26.27,0,0,0-10,11c-.45,1-2,1.45-3.07,2-4.11,2.25-8.29,4.37-12.34,6.7a11.4,11.4,0,0,0-3.47,3.16c-1.13,1.58-2.68,1.84-4.31,2.11-4.9.82-9.82,1.48-14.67,2.5a9.8,9.8,0,0,0-4.48,2.48,47.74,47.74,0,0,1-8.17,6c-1.9,1.17-4,2.08-5.93,3.08l-.1,1-1.06-.58c-.73.52-1.57,1.39-2.76.27-.17-1.16.59-1.88,1.61-2.33,2.2-1,4.42-1.93,6.67-2.78a17.8,17.8,0,0,0,6.88-5.13,66.65,66.65,0,0,1,5.45-5.57,5.12,5.12,0,0,1,2.85-.83,57,57,0,0,0,32.48-13.41,57.31,57.31,0,0,0,19.11-30.8,15.63,15.63,0,0,0,.46-2.22,1,1,0,0,1,1.29-1c.48.09,1.22.54,1.28.92a25.31,25.31,0,0,1,.22,4.27,26.28,26.28,0,0,1-.39,3.43C135.07,70.28,134.8,71.35,134.58,72.42Z"/><path class="cls-2" d="M13.59,77c-1.5-3.71-3.15-7.47-4.52-11.33a15.84,15.84,0,0,1-.94-8.33,1.84,1.84,0,0,1,1.44-1.56,1,1,0,0,1,1.46.78c.71,2.73,1.44,5.45,2.16,8.18a28.26,28.26,0,0,0,3,7.73c-.33-2.49-.7-4.91-.94-7.34a10.8,10.8,0,0,1,.17-3.31,2,2,0,0,1,1.28-1.25c.81-.16,1.33.41,1.48,1.31a53.17,53.17,0,0,0,6.5,17.42,56.78,56.78,0,0,0,14,16.19,58.57,58.57,0,0,0,19.13,10.16,61.55,61.55,0,0,0,16.63,2.7l-2.23,4.74a14.63,14.63,0,0,0-3.09-1.69,53.16,53.16,0,0,0-6.64-1.23c-2.6-.34-5.24-.39-7.83-.75a9.36,9.36,0,0,1-5-2.59c-2.23-2.06-4.43-4.16-6.7-6.17a5.17,5.17,0,0,0-2.16-1.13,17.76,17.76,0,0,1-10-6.4c-2.52-3-4.92-6.2-7.5-9.2a35.07,35.07,0,0,0-4-3.68c-1.07-.89-1.16-.82-1.72.43-.07.14-.12.29-.1.23l-3.64-.44a15.38,15.38,0,0,1,3.67,7.06H14.25l-.23.27,4.84,5.27-3.09.14c2.15,1.83,4.14,3.34,6.91,3.86-1,2,.08,2.9,2.16,3.24-.42.36-.66.52-.85.72-.86.91-.65,1.74.54,2.12.93.3,1.86.56,3.08.92l-2.17,1.82c1.81,1.6,4,1.93,6.57,2.42l-3.46,2A94.88,94.88,0,0,0,48.24,118c-8.9-.41-16.5-4.82-24.76-8l4.16-1.33a29.67,29.67,0,0,1-8.11-2.09l0-.36,4.35-1.38c-2.63-.76-5.35-.52-7.65-1.79v-.37l5.42-1.14v-.39c-3.24-1.24-7.29-.28-10.09-3.71l7.77.38.09-.38c-1.38-.62-2.78-1.21-4.13-1.88-2.94-1.45-5.93-2.86-8.19-5.32a18.66,18.66,0,0,1-1.77-2.82C7.08,87.21,8,88,9.07,88.62c1.43.82,2.76,1.93,4.79,1.56-1.34-1.14-2.6-2.17-3.8-3.27A56,56,0,0,1,.68,76.54C.26,75.91-.46,75.26.4,74.6a1.77,1.77,0,0,1,2.5.11c1.56,1.59,3,3.28,4.68,4.78s3.54,2.92,5.33,4.35a3,3,0,0,0,.74.31,73.06,73.06,0,0,1-11-14.84,5.51,5.51,0,0,1-.76-1.75,3.21,3.21,0,0,1,.17-2c.44-.67,2.15-.62,2.73,0a40.92,40.92,0,0,1,2.68,3.32c2,2.7,4,5.42,6,8.13C13.56,77.06,13.69,77.09,13.59,77Z"/><path class="cls-2" d="M96.82,122.91c3.08-.71,6.43-.21,9.75,0s6.56.68,10,1a3.59,3.59,0,0,1-1.63,3.44c-1.69,1-3.22,1.13-6.21-.79-.17.92-.29,1.8-.49,2.65-.44,1.8-1.71,2.29-3.32,1.33-2.23-1.34-2.23-1.34-3.39,1-.13.25-.21.57-.42.72-.47.35-1.06.9-1.51.83s-.84-.78-1.2-1.25c-.12-.17-.06-.47-.1-1-.45.58-.77,1-1.08,1.41A13,13,0,0,1,96,133.9a1.88,1.88,0,0,1-3.16-.34,9.56,9.56,0,0,0-.66-.76c-.6.71-1.1,1.42-1.71,2-1.39,1.34-2.34,1.08-3-.73-.13-.41-.29-.81-.5-1.38a25.24,25.24,0,0,1-1.47,2.4,3,3,0,0,1-1.46,1.11c-1.66.38-2.27,0-1.9-1.58a3.92,3.92,0,0,0-.06-1.82c-.6.62-1.15,1.29-1.79,1.87A12.45,12.45,0,0,1,78,136.49c-.9.5-1.34.12-1.25-.91.07-.85.18-1.7.27-2.55l-.31-.13c-.52.6-1,1.21-1.57,1.79A7.48,7.48,0,0,1,73.76,136c-.44.28-1.1.59-1.49.44s-.44-.9-.53-1.41a12.91,12.91,0,0,1,0-1.77c-2.25,1.05-3.94,3.24-6.81,2.71a6.06,6.06,0,0,1,3.89-4.47,20.2,20.2,0,0,1,7.69-1.4c2.91-.12,5.83.08,8.74-.06s5.57-.41,8-2.06c.86-.59,1.86-1.21.72-2.43a7.5,7.5,0,0,0,1.88-.84A7.07,7.07,0,0,0,96.82,122.91Z"/><path class="cls-2" d="M67,127a7.42,7.42,0,0,0,2.63.16,6.44,6.44,0,0,1,2.93,0c2.57.28,5.16.36,7.74.52l1.34.1v.37a17.71,17.71,0,0,1-1.9.19c-5.87,0-11.74,0-17.6.09a33.87,33.87,0,0,0-5,.8c0-.14,0-.45.09-1.08L55,129.64a3.21,3.21,0,0,1,2-4.48,1.64,1.64,0,0,1,.67.12c1.08.24,2.15.54,3.24.71s1.64-.59,1.77-2.33l6.86-1.49.12.25-2.39,1.8,1.54.2L67,126.54Z"/><path class="cls-2" d="M65.45,101.21c-.14-1.24-.29-2.13-.33-3-.14-2.84-.8-5.7.15-8.51.53-1.55,1.83-2.54,2.93-2.27A2.82,2.82,0,0,1,70,90.89a30.73,30.73,0,0,1-1.77,4.89C67.41,97.52,66.47,99.19,65.45,101.21Z"/><path class="cls-2" d="M56.25,3.86c1.82,2.55,3.75,5,5.41,7.68a5.73,5.73,0,0,1,.7,3.48c-.22,1.83-2.07,2.34-3.49,1.13a6.11,6.11,0,0,1-1.85-4c-.18-1.1-.47-2.17-.62-3.27-.21-1.6-.34-3.22-.51-4.83Z"/><path class="cls-2" d="M94.71,98.07c-1.43-1.83-2.94-3.6-4.26-5.51a17.38,17.38,0,0,1-2-4,2.42,2.42,0,0,1,1.38-3.24A2.5,2.5,0,0,1,92.86,87a32.94,32.94,0,0,1,1.38,5.27c.34,1.87.47,3.77.7,5.66Z"/><path class="cls-2" d="M85,100.92c-1.32-3-2.72-6-3.91-9a5,5,0,0,1,0-2.89,2,2,0,0,1,3.63-.69,6,6,0,0,1,1.09,3.18c0,3.12-.16,6.24-.27,9.36Z"/><path class="cls-2" d="M55.67,97.89c.56-3.29,1.08-6.57,1.72-9.84a4.37,4.37,0,0,1,1.07-1.82,2.48,2.48,0,0,1,3-.77,2.4,2.4,0,0,1,1,2.92,37.78,37.78,0,0,1-2.85,5.18c-1,1.57-2.34,3-3.52,4.45Z"/><path class="cls-2" d="M47.46,8.54c2.29,2.15,4.65,4.22,6.82,6.48a7.43,7.43,0,0,1,1.34,3,1.62,1.62,0,0,1-.95,2.09,3.65,3.65,0,0,1-2.35-.14,3.18,3.18,0,0,1-1.58-1.53C49.4,15.25,48.19,12,46.93,8.85Z"/><path class="cls-2" d="M75.06,101.93c-.72-3.36-1.49-6.7-2.11-10.08a3.28,3.28,0,0,1,1-3,1.88,1.88,0,0,1,3.09.35,5.59,5.59,0,0,1,.69,3.13c-.55,3.23-1.37,6.42-2.08,9.63Z"/><path class="cls-2" d="M111.46,15.14c-1.46,2.5-2.87,5-4.42,7.48a5.28,5.28,0,0,1-3.54,2.58,2,2,0,0,1-2.38-2.59A5.92,5.92,0,0,1,102.91,20c2.67-1.85,5.48-3.51,8.23-5.25Z"/><path class="cls-2" d="M125.15,41c-3.2,1.77-6.19,3.94-9.85,4.57-2,.35-3.69-.87-3.52-2.47a2.85,2.85,0,0,1,2.7-2.28c2.57-.15,5.15-.07,7.73,0C123.19,40.75,124.17,40.88,125.15,41Z"/><path class="cls-2" d="M75.63,0c.76,3.11,1.59,6.21,2.24,9.35A6.13,6.13,0,0,1,77.55,12a2.16,2.16,0,0,1-2.28,1.72,2.08,2.08,0,0,1-2-1.85,9.48,9.48,0,0,1,0-3.4c.58-2.86,1.35-5.68,2-8.51Z"/><path class="cls-2" d="M95.2,4c-.64,3.4-1.18,6.83-2,10.19a4.29,4.29,0,0,1-1.94,2.22,1.86,1.86,0,0,1-2.93-1.66,6.92,6.92,0,0,1,1-3.46c1.65-2.56,3.54-5,5.34-7.44Z"/><path class="cls-2" d="M111.2,87.14c-2.61-1.56-5.17-3-7.65-4.59a5.21,5.21,0,0,1-2.39-3.13c-.39-1.57.58-3.12,2.47-2.59a4.85,4.85,0,0,1,2.59,1.67c1.82,2.68,3.41,5.5,5.08,8.27C111.32,86.81,111.26,86.91,111.2,87.14Z"/><path class="cls-2" d="M103.86,8.85c-1.16,3.06-2.23,6.15-3.53,9.14a5.16,5.16,0,0,1-2.23,2.18,2,2,0,0,1-2.51-.47,2.55,2.55,0,0,1-.18-2.92,10.61,10.61,0,0,1,1.89-2.56c2-1.93,4-3.76,6.08-5.62Z"/><path class="cls-2" d="M39.6,14.89c3.09,1.9,6.57,3.19,9.17,5.9a3.35,3.35,0,0,1,.42.57,2.8,2.8,0,0,1-.12,3.41,2.47,2.47,0,0,1-3.26-.19,12.56,12.56,0,0,1-2.42-2.72c-1.42-2.19-2.69-4.48-4-6.72Z"/><path class="cls-2" d="M117.57,79.33c-1.11-.35-2.24-.64-3.33-1-2-.77-4.13-1.51-6.11-2.44A3.48,3.48,0,0,1,106,73a2,2,0,0,1,2.72-2.22,7.19,7.19,0,0,1,2.66,1.46c2.21,2.18,4.28,4.51,6.41,6.78Z"/><path class="cls-2" d="M25.58,60.68C28.28,59.39,31,58,33.7,56.84a7.28,7.28,0,0,1,2.69-.36,2.43,2.43,0,0,1,2.7,2A2.61,2.61,0,0,1,37,61a49.12,49.12,0,0,1-6.52.43,44.11,44.11,0,0,1-4.84-.5Z"/><path class="cls-2" d="M65.86,1c1.35,3.22,2.74,6.42,4,9.67a2.92,2.92,0,0,1-.07,2.08,3.65,3.65,0,0,1-1.67,1.75,1.82,1.82,0,0,1-2.35-1.13A11.26,11.26,0,0,1,65,9.56c0-2.83.21-5.66.33-8.5Z"/><path class="cls-2" d="M126.25,51.13c-2.59.7-5.16,1.48-7.77,2a11.64,11.64,0,0,1-3.68.12,2.49,2.49,0,0,1-2.3-2.46,2.78,2.78,0,0,1,2.91-2.27c1.3,0,2.59.29,3.89.45a5.86,5.86,0,0,1,.58.1l6.35,1.75Z"/><path class="cls-2" d="M24.65,51.07c3.48-1,6.77-2.66,10.44-2.49a5,5,0,0,1,2.21.7,1.78,1.78,0,0,1,.93,2.21,2.53,2.53,0,0,1-2.61,1.83c-2.31-.23-4.62-.62-6.9-1.06C27.34,52,26,51.48,24.65,51.07Z"/><path class="cls-2" d="M33.13,22.86c3.46.95,7,1.53,10,3.62.13.09.28.15.4.25,1.26,1.13,1.64,2.68.91,3.7a2.63,2.63,0,0,1-3.77.22,31.22,31.22,0,0,1-3.95-3.59C35.48,25.73,34.34,24.27,33.13,22.86Z"/><path class="cls-2" d="M39.6,87c1.71-3.27,2.94-6.81,5.77-9.32a5.32,5.32,0,0,1,.45-.38,2.7,2.7,0,0,1,3.39,0,2.58,2.58,0,0,1-.16,3.38,26.39,26.39,0,0,1-4.22,3.36C43.16,85.15,41.35,86,39.6,87Z"/><path class="cls-2" d="M46.89,93.08c1.25-3.16,2.43-6.35,3.79-9.45a3.22,3.22,0,0,1,3.11-2c1.09,0,1.83.59,1.8,1.61a4.74,4.74,0,0,1-.77,2.87c-2.15,2.31-4.51,4.41-6.79,6.59-.24.23-.51.44-.76.66Z"/><path class="cls-2" d="M122.34,31.73c-2.92,2.06-5.38,4.79-8.85,6a4.85,4.85,0,0,1-2.45.17,2,2,0,0,1-1-3.3,4.82,4.82,0,0,1,2.2-1.53c3.31-.72,6.65-1.24,10-1.84Z"/><path class="cls-2" d="M85.61,1.08c.08,3.39.19,6.78.18,10.17a4.35,4.35,0,0,1-.71,2,2.26,2.26,0,0,1-2.6,1.23,2.14,2.14,0,0,1-1.61-2.26,7.89,7.89,0,0,1,.49-3C82.53,6.43,83.85,3.74,85.12,1Z"/><path class="cls-2" d="M122.18,70.68c-3.13-.5-6.26-1-9.38-1.53a5.2,5.2,0,0,1-1.9-.94A2.52,2.52,0,0,1,109.74,65c.48-1,2-1.42,3.39-1,2.83,1,5,3,7.3,4.73.66.48,1.26,1,1.88,1.56Z"/><path class="cls-2" d="M103.35,93.45c-2.35-2.23-4.74-4.43-7-6.71a3.93,3.93,0,0,1-1.12-3.27,1.94,1.94,0,0,1,3.12-1.55,5,5,0,0,1,1.91,1.87c1.31,3.08,2.43,6.23,3.62,9.36Z"/><path class="cls-2" d="M117.8,22.88c-2.14,2.32-4.18,4.75-6.45,6.94-1.07,1-2.49,1.94-4.21,1.19a2,2,0,0,1-1.08-2.66,5.24,5.24,0,0,1,3.33-2.81c2.68-1.05,5.4-2,8.1-3Z"/><path class="cls-2" d="M28.46,70.29c2.92-2.18,5.45-4.91,9-6.17a3.53,3.53,0,0,1,2.31-.06,2.83,2.83,0,0,1,1.43,1.69,2.13,2.13,0,0,1-1.29,2.45,17.43,17.43,0,0,1-4.12,1.4c-2.37.44-4.79.64-7.19,1Z"/><path class="cls-2" d="M28.59,31.29c3,.48,6,.85,9,1.48a7.71,7.71,0,0,1,3,1.61A1.78,1.78,0,0,1,41,36.85,3.4,3.4,0,0,1,39,38a5.13,5.13,0,0,1-3.81-1.33c-2.27-1.63-4.51-3.29-6.76-4.94Z"/><path class="cls-2" d="M32.86,79.13c2.44-2.55,4.67-5,7-7.29a3.63,3.63,0,0,1,3.42-1,2.07,2.07,0,0,1,.8,3.71,17,17,0,0,1-4.46,2.61c-2,.85-4,1.41-6.06,2.09C33.46,79.3,33.31,79.22,32.86,79.13Z"/><path class="cls-2" d="M25.64,41.16c3.74-.25,7.41-1.54,11.09-.27a4.94,4.94,0,0,1,2,1.38,1.69,1.69,0,0,1,0,2.21,3.26,3.26,0,0,1-3.23,1c-2.35-.88-4.68-1.84-7-2.83C27.51,42.23,26.59,41.66,25.64,41.16Z"/><path class="cls-2" d="M125.12,61.13c-3,.13-6.05.3-9.07.34a7.39,7.39,0,0,1-2.64-.59,2.53,2.53,0,0,1-1.62-2.67,2.2,2.2,0,0,1,2.42-1.7,16.4,16.4,0,0,1,4.44,1.14c2.24.91,4.38,2,6.56,3.09Z"/></g></svg>